<svg width="33" height="34" viewBox="0 0 33 34" fill="none" xmlns="http://www.w3.org/2000/svg">
<g clip-path="url(#clip0_1014_6449)">
<path d="M27.1017 18.9929L31.5935 13.6467C31.9723 13.1945 32.1602 12.5975 32.1129 11.9948C32.0665 11.3923 31.7868 10.837 31.3404 10.4612C30.4434 9.73138 29.1642 9.87456 28.431 10.7871L25.0346 14.829L19.9911 10.0679C19.5628 9.66357 18.9062 9.70365 18.5245 10.1576L2.34391 29.4162C1.57434 30.2932 1.58766 31.6552 2.37411 32.5153C2.76151 32.9254 3.28684 33.1551 3.83428 33.1536H3.90253C4.47186 33.1331 5.0086 32.8669 5.38815 32.4167L19.5547 15.5555L23.4346 19.218C24.5067 20.2271 26.1468 20.1262 27.1017 18.9929ZM24.1254 18.3952L20.2458 14.7327C20.0391 14.5401 19.7692 14.441 19.4945 14.4574C19.2194 14.4735 18.9616 14.6059 18.7792 14.8247L4.61264 31.6832C4.42382 31.91 4.15485 32.0436 3.86972 32.0522C3.58482 32.057 3.30967 31.9421 3.10443 31.7328C2.71846 31.2819 2.72512 30.5917 3.11965 30.149L19.3002 10.8907L24.3435 15.6518C24.7721 16.0561 25.4284 16.016 25.8101 15.562L29.2073 11.5194C29.5764 11.0525 30.2223 10.9661 30.6896 11.3208C30.9126 11.5093 31.0527 11.7869 31.077 12.0883C31.1014 12.3896 31.0075 12.6886 30.8177 12.9144L26.3262 18.2603C25.7528 18.9404 24.7687 19.0007 24.1254 18.3952Z" fill="#0CBD68"/>
<path d="M11.4064 7.85938L14.8979 11.1559C15.3265 11.5599 15.9828 11.5196 16.3645 11.0656L17.7465 9.42078C18.1281 8.96653 18.0903 8.27028 17.6618 7.86543L13.0064 3.47064C11.935 2.45928 10.2932 2.56012 9.33905 3.69574L4.847 9.0419C4.46816 9.49413 4.28053 10.0911 4.32738 10.6938C4.3747 11.2968 4.6558 11.8521 5.1036 12.2275C5.46317 12.532 5.91002 12.6966 6.37019 12.6946C6.99873 12.6905 7.59588 12.4021 8.01134 11.902L11.4064 7.85938ZM5.7514 11.3679C5.52809 11.1793 5.38802 10.9018 5.36377 10.6003C5.33951 10.2988 5.43321 10.0001 5.62298 9.7742L10.1148 4.42829C10.389 4.09983 10.7757 3.9017 11.1885 3.8775C11.2197 3.8775 11.2504 3.87422 11.281 3.87422C11.663 3.87346 12.0313 4.02295 12.3153 4.29318L16.9712 8.68671L15.5893 10.3315L12.0977 7.03507C11.6691 6.63099 11.0128 6.67132 10.6311 7.12532L7.23345 11.1697C6.86365 11.6351 6.2187 11.7213 5.7514 11.3679Z" fill="#0CBD68"/>
<path d="M17.015 32.5206C17.4024 32.9308 17.9282 33.1604 18.4758 33.1589H18.5434C19.1129 33.1387 19.6502 32.8728 20.0302 32.4226L24.5218 27.0767C25.4761 25.9408 25.381 24.2002 24.3094 23.1888L19.653 18.7928C19.4468 18.5997 19.1769 18.5006 18.9022 18.5175C18.6266 18.5334 18.3686 18.666 18.1859 18.8853L16.804 20.5296C16.4223 20.9838 16.4604 21.6803 16.8892 22.0847L20.3802 25.3789L16.9831 29.4215C16.215 30.2993 16.2287 31.6608 17.015 32.5206ZM17.761 30.1528L21.1596 26.1112C21.541 25.6572 21.503 24.9612 21.0749 24.5566L17.5812 21.2609L18.9631 19.6166L23.6183 24.0121C24.2609 24.6189 24.318 25.663 23.7455 26.3441L19.254 31.6903C19.0649 31.9166 18.7957 32.0497 18.5106 32.058C18.2245 32.0719 17.9462 31.9557 17.7458 31.7387C17.3595 31.2874 17.366 30.5967 17.761 30.1538V30.1528Z" fill="#0CBD68"/>
<path d="M20.6975 8.76825C21.5505 9.57793 22.6556 10.0246 23.8007 10.0229C23.8925 10.0229 23.985 10.0193 24.0775 10.014C26.3044 9.8769 28.1299 8.09166 28.4376 5.74982C28.7453 3.40798 27.4495 1.16193 25.3427 0.38501C23.2359 -0.391654 20.9048 0.517101 19.775 2.55594C18.6454 4.59478 19.0316 7.19551 20.6975 8.76774V8.76825ZM21.0913 2.50325C22.4271 0.913373 24.7258 0.772208 26.2257 2.18815C27.7256 3.6041 27.8585 6.04072 26.5227 7.6306C25.1872 9.22048 22.8884 9.36139 21.3886 7.94545C20.6668 7.26659 20.2297 6.31095 20.174 5.28977C20.1182 4.26858 20.4482 3.2658 21.0913 2.50325Z" fill="#0CBD68"/>
<path d="M0.949219 14.9802C0.949219 15.2845 1.1818 15.531 1.4686 15.531H5.62462C5.91166 15.531 6.14424 15.2845 6.14424 14.9802C6.14424 14.6762 5.91166 14.4297 5.62462 14.4297H1.4686C1.1818 14.4297 0.949219 14.6762 0.949219 14.9802Z" fill="#0CBD68"/>
<path d="M3.02734 17.1834C3.02734 17.4876 3.25992 17.7342 3.54673 17.7342H7.70275C7.98979 17.7342 8.22237 17.4876 8.22237 17.1834C8.22237 16.8793 7.98979 16.6328 7.70275 16.6328H3.54673C3.25992 16.6328 3.02734 16.8793 3.02734 17.1834Z" fill="#0CBD68"/>
</g>
<defs>
<clipPath id="clip0_1014_6449">
<rect width="31.1742" height="33.0447" fill="white" transform="translate(0.945312 0.109375)"/>
</clipPath>
</defs>
</svg>
