<svg width="26" height="35" viewBox="0 0 26 35" fill="none" xmlns="http://www.w3.org/2000/svg">
<path d="M24.5005 0.703125H9.15698C7.49927 0.703125 6.11406 1.87091 5.80958 3.41289C2.8611 3.70765 0.632812 6.0887 0.632812 9.07508V14.0983C0.632812 15.7888 1.91485 17.1908 3.5742 17.4156C4.1713 20.1368 5.97454 22.4226 8.40502 23.7046C5.54042 24.2124 3.36048 26.6792 3.36048 29.6367V34.325C3.36048 34.6949 3.66578 34.9948 4.04241 34.9948H21.7727C22.1493 34.9948 22.4546 34.6949 22.4546 34.325V29.6367C22.4546 26.6791 20.2746 24.2123 17.4099 23.7046C20.4101 22.1221 22.4546 19.01 22.4546 15.4378V7.89684C24.1149 6.60783 25.1824 4.61269 25.1824 2.37752V1.37288C25.1824 1.00304 24.8771 0.703125 24.5005 0.703125V0.703125ZM11.5438 24.719C12.431 24.8458 13.3842 24.8458 14.2715 24.7189V25.4841C14.2027 27.2592 11.6119 27.2578 11.5438 25.4841V24.719ZM21.0908 29.6367V33.6553H19.045V31.9809C19.0115 31.0932 17.7144 31.0938 17.6812 31.9809V33.6553H8.13408V31.9809C8.10053 31.0932 6.80343 31.0938 6.77022 31.9809V33.6553H4.72442V29.6367C4.72442 27.0516 6.86582 24.9484 9.49795 24.9484H10.1799V25.4841C10.3175 29.0342 15.499 29.0315 15.6354 25.4841V24.9484H16.3173C18.9494 24.9484 21.0908 27.0516 21.0908 29.6367ZM21.0908 15.4378C20.6781 26.0881 5.1333 26.08 4.72442 15.4378V12.0217C6.05841 11.7546 7.1118 10.7201 7.38368 9.40996H18.0221C19.1196 9.40996 20.1603 9.1661 21.0908 8.73089V15.4378ZM23.8186 2.37752C23.8186 5.5166 21.2183 8.07044 18.0221 8.07044H6.77022C6.39358 8.07044 6.08828 8.37036 6.08828 8.7402C6.08828 9.84811 5.17054 10.7495 4.04248 10.7495C3.66585 10.7495 3.36055 11.0494 3.36055 11.4192V15.4378C3.36055 15.6261 3.36621 15.8129 3.37746 15.9985C2.57489 15.7268 1.99668 14.9776 1.99668 14.0983V9.07508C1.99668 6.63395 3.94367 4.72166 6.42925 4.72166C6.80588 4.72166 7.11118 4.42175 7.11118 4.05191C7.11118 2.944 8.02893 2.04264 9.15698 2.04264H23.8186V2.37752Z" fill="#0CBD68"/>
<path d="M10.0748 15.4759C10.3411 15.7376 10.7729 15.7375 11.0392 15.4759C11.3055 15.2143 11.3055 14.7903 11.0392 14.5287C10.157 13.6258 8.57018 13.6259 7.68803 14.5287C7.42173 14.7903 7.42166 15.2143 7.68803 15.4759C7.95432 15.7375 8.38613 15.7375 8.65242 15.4759C9.02687 15.0926 9.70035 15.0926 10.0748 15.4759Z" fill="#0CBD68"/>
<path d="M14.7759 14.5287C14.5096 14.7903 14.5096 15.2143 14.7759 15.4759C15.0422 15.7375 15.474 15.7375 15.7403 15.4759C16.1148 15.0927 16.7883 15.0927 17.1627 15.4759C17.429 15.7376 17.8608 15.7375 18.1271 15.4759C18.3934 15.2143 18.3934 14.7903 18.1271 14.5287C17.2449 13.6258 15.6581 13.6259 14.7759 14.5287Z" fill="#0CBD68"/>
<path d="M16.3177 17.1172H9.49834C9.12171 17.1172 8.81641 17.4171 8.81641 17.7869C9.02235 23.1113 16.795 23.1087 16.9996 17.7869C16.9996 17.4171 16.6943 17.1172 16.3177 17.1172ZM12.908 20.4659C11.6393 20.4659 10.5701 19.6108 10.2666 18.4567H15.5495C15.2459 19.6108 14.1768 20.4659 12.908 20.4659Z" fill="#0CBD68"/>
</svg>
