<svg width="32" height="33" viewBox="0 0 32 33" fill="none" xmlns="http://www.w3.org/2000/svg">
<g clip-path="url(#clip0_1014_6473)">
<path d="M17.5702 32.1171H13.6734C12.7641 32.1171 11.725 31.3377 11.725 29.779V27.0513C11.725 25.7524 11.0755 24.5833 10.0364 23.6741C7.69833 21.8556 6.5293 19.2577 6.5293 16.4001C6.65919 11.4642 10.6859 7.56739 15.4919 7.4375C17.9598 7.4375 20.2979 8.34675 21.9865 10.0354C23.6751 11.724 24.7143 14.062 24.7143 16.53C24.7143 19.2577 23.5452 21.8556 21.3371 23.5442C20.168 24.4534 19.5186 25.8823 19.5186 27.1812V30.1687C19.5186 31.2079 18.6093 32.1171 17.5702 32.1171ZM15.6218 8.73643C11.4652 8.73643 7.95812 12.2435 7.82822 16.4001C7.82822 18.8681 8.86736 21.2061 10.8158 22.6349C12.2446 23.804 13.0239 25.3627 13.0239 27.0513V29.779C13.0239 30.0388 13.0239 30.8182 13.6734 30.8182H17.5702C17.9599 30.8182 18.2196 30.5584 18.2196 30.1687V27.1812C18.2196 25.4926 19.1289 23.6741 20.5577 22.505C22.3762 21.0762 23.4153 18.8681 23.4153 16.53C23.4153 14.4517 22.636 12.5033 21.0773 10.9446C19.6485 9.51578 17.7001 8.73643 15.6218 8.73643Z" fill="#0CBD68"/>
<path d="M18.8667 28.2286H12.3721C11.9824 28.2286 11.7227 27.9688 11.7227 27.5791C11.7227 27.1895 11.9824 26.9297 12.3721 26.9297H18.8667C19.2564 26.9297 19.5162 27.1895 19.5162 27.5791C19.5162 27.9688 19.2564 28.2286 18.8667 28.2286Z" fill="#0CBD68"/>
<path d="M15.6202 4.8499C15.2305 4.8499 14.9707 4.59012 14.9707 4.20044V1.60259C14.9707 1.21291 15.2305 0.953125 15.6202 0.953125C16.0098 0.953125 16.2696 1.21291 16.2696 1.60259V4.20044C16.2696 4.59012 16.0098 4.8499 15.6202 4.8499Z" fill="#0CBD68"/>
<path d="M24.3238 8.48216C24.1939 8.48216 23.9341 8.48216 23.8042 8.35227C23.5444 8.09248 23.5444 7.70281 23.8042 7.44302L25.6227 5.62453C25.8825 5.36474 26.2722 5.36474 26.532 5.62453C26.7917 5.88431 26.7917 6.27399 26.532 6.53377L24.7135 8.35227C24.7135 8.35227 24.4537 8.48216 24.3238 8.48216Z" fill="#0CBD68"/>
<path d="M30.5579 17.1817H27.96C27.5703 17.1817 27.3105 16.922 27.3105 16.5323C27.3105 16.1426 27.5703 15.8828 27.96 15.8828H30.5579C30.9475 15.8828 31.2073 16.1426 31.2073 16.5323C31.2073 16.922 30.9475 17.1817 30.5579 17.1817Z" fill="#0CBD68"/>
<path d="M26.1423 27.7087C26.0124 27.7087 25.7526 27.7087 25.6227 27.5788L23.8042 25.7603C23.5444 25.5006 23.5444 25.1109 23.8042 24.8511C24.064 24.5913 24.4537 24.5913 24.7135 24.8511L26.532 26.6696C26.7917 26.9294 26.7917 27.319 26.532 27.5788C26.532 27.7087 26.4021 27.7087 26.1423 27.7087Z" fill="#0CBD68"/>
<path d="M5.09918 27.7087C4.96928 27.7087 4.7095 27.7087 4.5796 27.5788C4.31982 27.319 4.31982 26.9294 4.5796 26.6696L6.3981 24.8511C6.65789 24.5913 7.04756 24.5913 7.30735 24.8511C7.56713 25.1109 7.56713 25.5006 7.30735 25.7603L5.48885 27.5788C5.35896 27.7087 5.22907 27.7087 5.09918 27.7087Z" fill="#0CBD68"/>
<path d="M3.28052 17.1817H0.682666C0.292988 17.1817 0.0332031 16.922 0.0332031 16.5323C0.0332031 16.1426 0.292988 15.8828 0.682666 15.8828H3.28052C3.6702 15.8828 3.92998 16.1426 3.92998 16.5323C3.92998 16.922 3.6702 17.1817 3.28052 17.1817Z" fill="#0CBD68"/>
<path d="M6.91767 8.47924C6.78778 8.47924 6.52799 8.47924 6.3981 8.34935L4.5796 6.40096C4.31982 6.14118 4.31982 5.7515 4.5796 5.49171C4.83939 5.23193 5.22907 5.23193 5.48885 5.49171L7.30735 7.31021C7.56713 7.56999 7.56713 7.95967 7.30735 8.21946C7.17746 8.34935 7.04756 8.47924 6.91767 8.47924Z" fill="#0CBD68"/>
<path d="M20.8159 17.1899C20.4262 17.1899 20.1664 16.9301 20.1664 16.5405C20.1664 14.0725 18.0881 11.9942 15.6202 11.9942C15.2305 11.9942 14.9707 11.7345 14.9707 11.3448C14.9707 10.9551 15.2305 10.6953 15.6202 10.6953C18.8675 10.6953 21.4653 13.2932 21.4653 16.5405C21.4653 16.9301 21.2055 17.1899 20.8159 17.1899Z" fill="#0CBD68"/>
</g>
<defs>
<clipPath id="clip0_1014_6473">
<rect width="31.1742" height="31.1742" fill="white" transform="translate(0.0332031 0.945312)"/>
</clipPath>
</defs>
</svg>
