<svg width="40" height="32" viewBox="0 0 40 32" fill="none" xmlns="http://www.w3.org/2000/svg">
<path d="M39.2478 15.8351C39.2478 8.49997 32.6091 2.20989 23.4625 0.878824C23.05 0.81925 22.6646 1.09959 22.6035 1.50621C22.5424 1.91283 22.8279 2.29123 23.2411 2.3514C31.6394 3.57356 37.7349 9.24435 37.7349 15.8352C37.7349 17.9637 37.1164 20.0054 35.8968 21.9036C35.8202 22.0227 35.7797 22.1606 35.7797 22.3014L35.7809 27.7948L32.6299 26.0062C32.3747 25.8614 32.0574 25.8754 31.8165 26.0422C28.5424 28.3091 24.3174 29.5575 19.9199 29.5575C10.0966 29.5575 2.10482 23.4017 2.10482 15.8352C2.10482 9.23521 8.21043 3.56302 16.6227 2.34791C17.0361 2.28826 17.3219 1.91016 17.2612 1.50346C17.2006 1.09669 16.8158 0.815462 16.4029 0.875185C7.24124 2.19838 0.591797 8.48994 0.591797 15.8351C0.591797 19.9315 2.62547 23.7716 6.31818 26.6481C9.95894 29.4841 14.7894 31.046 19.9198 31.046C24.4498 31.046 28.8201 29.8003 32.2862 27.5295L36.1597 29.7283C36.3937 29.861 36.6821 29.861 36.9162 29.7281C37.1502 29.595 37.2943 29.3492 37.2943 29.0834L37.2926 22.5137C38.5902 20.4258 39.2478 18.18 39.2478 15.8351Z" fill="#0CBD68"/>
<path d="M7.10807 10.8281C6.69033 10.8281 6.35156 11.1614 6.35156 11.5724V18.9709C6.35156 19.3335 6.6171 19.6432 6.98025 19.7045C7.03401 19.7136 8.89403 19.7092 9.7477 19.7045C10.1655 19.7022 10.5023 19.3777 10.5 18.9667C10.4976 18.5571 10.1594 18.2266 9.74355 18.2266C9.74212 18.2266 9.74068 18.2266 9.73925 18.2266C9.08202 18.2302 8.37406 18.2327 7.86451 18.2328V11.5724C7.86458 11.1614 7.52581 10.8281 7.10807 10.8281Z" fill="#0CBD68"/>
<path d="M22.0877 19.7045C22.0877 19.7045 24.0015 19.7092 24.8552 19.7045C25.273 19.7022 25.6098 19.3777 25.6075 18.9667C25.6051 18.557 25.2669 18.2266 24.851 18.2266C24.8496 18.2266 24.8482 18.2266 24.8467 18.2266C24.1895 18.2302 23.4816 18.2327 22.972 18.2328V11.5724C22.972 11.1614 22.6333 10.8281 22.2155 10.8281C21.7977 10.8281 21.459 11.1614 21.459 11.5724V18.9709C21.4591 19.3334 21.7246 19.6433 22.0877 19.7045Z" fill="#0CBD68"/>
<path d="M10.9336 15.509C10.9336 17.961 12.961 19.9557 15.4531 19.9557C17.9452 19.9557 19.9726 17.961 19.9726 15.509C19.9726 13.0572 17.9452 11.0625 15.4531 11.0625C12.961 11.0625 10.9336 13.0572 10.9336 15.509ZM18.4597 15.509C18.4597 17.1401 17.1109 18.4671 15.4531 18.4671C13.7953 18.4671 12.4465 17.1401 12.4465 15.509C12.4465 13.878 13.7953 12.551 15.4531 12.551C17.1109 12.551 18.4597 13.878 18.4597 15.509Z" fill="#0CBD68"/>
<path d="M32.6904 9.94743C32.6904 9.53643 32.3517 9.20312 31.9339 9.20312H28.821C28.4032 9.20312 28.0645 9.53636 28.0645 9.94743V16.2817C28.0645 16.6927 28.4031 17.026 28.821 17.026H31.9339C32.3516 17.026 32.6904 16.6928 32.6904 16.2817V9.94743ZM31.1775 15.5374H29.5775V10.6917H31.1775V15.5374Z" fill="#0CBD68"/>
<path d="M30.3769 18.0078C29.1255 18.0078 28.1074 19.0094 28.1074 20.2407C28.1074 21.4718 29.1255 22.4735 30.3769 22.4735C31.6283 22.4735 32.6463 21.4719 32.6463 20.2407C32.6463 19.0094 31.6282 18.0078 30.3769 18.0078ZM30.3769 20.9849C29.9598 20.9849 29.6204 20.651 29.6204 20.2406C29.6204 19.8303 29.9597 19.4963 30.3769 19.4963C30.7939 19.4963 31.1334 19.8302 31.1334 20.2406C31.1333 20.651 30.7939 20.9849 30.3769 20.9849Z" fill="#0CBD68"/>
<path d="M19.8639 2.10393C20.2806 2.1326 20.6421 1.82344 20.6713 1.41341C20.7004 1.00337 20.3862 0.647704 19.9694 0.619031C19.5527 0.590358 19.1912 0.899521 19.162 1.30956C19.1329 1.7196 19.4471 2.07526 19.8639 2.10393Z" fill="#0CBD68"/>
</svg>
