<svg width="41" height="36" viewBox="0 0 41 36" fill="none" xmlns="http://www.w3.org/2000/svg">
<path d="M14.3979 5.28254C14.4298 5.35115 14.4753 5.41279 14.5318 5.46384C14.5882 5.51489 14.6544 5.55433 14.7266 5.57983C14.7988 5.60534 14.8754 5.61639 14.9519 5.61235C15.0285 5.60831 15.1034 5.58925 15.1724 5.55629C15.2414 5.52334 15.303 5.47715 15.3535 5.42045C15.4041 5.36374 15.4426 5.29766 15.4669 5.22609C15.4912 5.15451 15.5006 5.07889 15.4948 5.00366C15.4889 4.92843 15.4679 4.85511 15.4328 4.78801L13.9828 1.84955C13.9161 1.71449 13.7976 1.61105 13.6533 1.56199C13.5091 1.51293 13.351 1.52226 13.2137 1.58794C13.0765 1.65362 12.9714 1.77026 12.9215 1.9122C12.8717 2.05415 12.8812 2.20977 12.9479 2.34483L14.3979 5.28254ZM20.3711 4.4694C20.5237 4.4694 20.6701 4.40974 20.778 4.30355C20.8859 4.19736 20.9465 4.05333 20.9465 3.90315V0.964688C20.9465 0.814509 20.8859 0.670481 20.778 0.564288C20.6701 0.458096 20.5237 0.398438 20.3711 0.398438C20.2185 0.398438 20.0722 0.458096 19.9643 0.564288C19.8564 0.670481 19.7958 0.814509 19.7958 0.964688V3.90315C19.7958 4.05333 19.8564 4.19736 19.9643 4.30355C20.0722 4.40974 20.2185 4.4694 20.3711 4.4694ZM25.5757 5.54452C25.6435 5.57694 25.7172 5.59588 25.7925 5.60026C25.8678 5.60464 25.9432 5.59437 26.0144 5.57004C26.0857 5.5457 26.1514 5.50779 26.2077 5.45846C26.2641 5.40913 26.31 5.34935 26.3429 5.28254L27.7928 2.34483C27.8259 2.27795 27.8452 2.20533 27.8497 2.1311C27.8543 2.05687 27.8439 1.98249 27.8192 1.9122C27.7945 1.84192 27.756 1.77711 27.7059 1.72147C27.6557 1.66584 27.5949 1.62046 27.527 1.58794C27.459 1.55542 27.3852 1.53639 27.3098 1.53194C27.2344 1.52748 27.1588 1.5377 27.0874 1.56199C27.016 1.58628 26.9501 1.62418 26.8936 1.67352C26.837 1.72286 26.7909 1.78267 26.7579 1.84955L25.3079 4.78801C25.2749 4.85496 25.2556 4.92767 25.2512 5.00197C25.2468 5.07627 25.2573 5.15069 25.2822 5.22097C25.3071 5.29125 25.3458 5.35601 25.3962 5.41153C25.4465 5.46706 25.5075 5.51225 25.5757 5.54452ZM31.8021 7.47129C31.8801 7.5092 31.966 7.52884 32.053 7.52867C32.1611 7.52885 32.2671 7.49897 32.3587 7.44247C32.4503 7.38596 32.5238 7.30514 32.5708 7.2093L33.374 5.58303C33.4071 5.51615 33.4264 5.44353 33.4309 5.3693C33.4355 5.29507 33.4251 5.22069 33.4004 5.1504C33.3757 5.08012 33.3372 5.01531 33.2871 4.95967C33.2369 4.90404 33.1762 4.85866 33.1082 4.82614C33.0403 4.79362 32.9665 4.77459 32.891 4.77014C32.8156 4.76568 32.74 4.7759 32.6686 4.80019C32.5972 4.82448 32.5313 4.86238 32.4748 4.91172C32.4183 4.96106 32.3722 5.02087 32.3391 5.08775L31.5359 6.71478C31.5028 6.78164 31.4834 6.85426 31.4789 6.92849C31.4744 7.00272 31.4848 7.0771 31.5095 7.14737C31.5343 7.21764 31.5728 7.28242 31.623 7.338C31.6732 7.39359 31.7341 7.43888 31.8021 7.47129ZM33.7354 29.244L33.7239 29.2304L32.1028 27.4184C31.4635 26.7018 30.6554 26.1504 29.7492 25.8127C28.843 25.4749 27.8665 25.361 26.9052 25.4811L22.0666 26.0851C21.5472 26.1523 21.0018 25.765 20.9519 25.2455C20.9333 25.0603 20.9715 24.8738 21.0618 24.7103C21.1521 24.5467 21.2902 24.4136 21.4582 24.3282L25.9362 22.1077C26.9711 21.5847 27.7734 20.7042 28.1893 19.6351C28.6052 18.5659 28.6056 17.3833 28.1902 16.3139L27.8895 15.54C27.6881 15.0224 27.3776 14.5526 26.9784 14.1616C26.5793 13.7706 26.1005 13.4672 25.5736 13.2713C25.0468 13.0755 24.4838 12.9917 23.9216 13.0253C23.3595 13.059 22.8109 13.2095 22.3121 13.4667C22.1093 13.572 21.8741 13.5999 21.6516 13.545C21.4292 13.4901 21.2352 13.3563 21.1069 13.1693C21.0351 13.066 20.9859 12.9492 20.9622 12.8263C20.9386 12.7034 20.9411 12.577 20.9695 12.455C21.0716 12.0104 21.5342 11.7937 21.9086 11.5777C23.1522 10.8596 24.6251 10.6286 26.034 10.9306C27.4429 11.2327 28.6846 12.0456 29.5121 13.2078C29.5997 13.3308 29.7333 13.4146 29.8837 13.4406C30.034 13.4667 30.1887 13.4329 30.3138 13.3467C30.4388 13.2605 30.5239 13.1289 30.5504 12.981C30.5769 12.833 30.5425 12.6808 30.4549 12.5577C29.816 11.663 28.9677 10.9327 27.9815 10.4286C27.0847 9.9685 26.0954 9.70956 25.0848 9.6704C24.0742 9.63124 23.0673 9.81283 22.1364 10.2021C22.0945 10.0134 22.1143 9.8165 22.193 9.63954C22.2717 9.46258 22.4052 9.31463 22.5745 9.21685C24.4349 8.15079 26.7172 7.81481 28.6214 8.78423C29.4424 9.20388 30.1487 9.81193 30.6805 10.557L33.8796 15.0515C33.9229 15.1124 33.978 15.1644 34.0417 15.2043C34.1055 15.2443 34.1765 15.2715 34.251 15.2845C34.3254 15.2974 34.4016 15.2958 34.4754 15.2797C34.5492 15.2636 34.619 15.2334 34.6809 15.1908C34.7428 15.1482 34.7956 15.0939 34.8362 15.0312C34.8768 14.9685 34.9045 14.8986 34.9177 14.8253C34.9308 14.7521 34.9292 14.6771 34.9128 14.6045C34.8965 14.5318 34.8658 14.4631 34.8225 14.4022L31.6226 9.90767C30.9844 9.01252 30.1362 8.28214 29.15 7.77857C26.8254 6.59322 24.2293 6.94807 21.993 8.23988C21.5689 8.48431 21.2465 8.86868 21.0831 9.32477C20.9196 9.78087 20.9256 10.2792 21.1 10.7314C20.8326 10.8665 20.587 11.0397 20.3711 11.2455C20.1566 11.0382 19.9107 10.8647 19.6423 10.7314C19.8167 10.2792 19.8227 9.78087 19.6592 9.32477C19.4957 8.86868 19.1734 8.48431 18.7493 8.23988L18.2468 7.94845C16.7537 7.08554 14.985 6.80783 13.2932 7.17063C11.6013 7.53344 10.1104 8.51013 9.1174 9.90616L0.83571 21.5422C0.754099 21.6653 0.724309 21.8148 0.752636 21.9591C0.780962 22.1034 0.865187 22.2312 0.987509 22.3155C1.10983 22.3998 1.26067 22.434 1.40814 22.4109C1.55562 22.3877 1.68818 22.3091 1.7778 22.1915L10.0633 10.5555C10.8912 9.39376 12.1329 8.58113 13.5416 8.27912C14.9504 7.97711 16.423 8.20783 17.6668 8.92542C18.1018 9.17608 18.747 9.58755 18.6074 10.2006C17.6765 9.81132 16.6697 9.62973 15.659 9.66889C14.6484 9.70805 13.6591 9.96699 12.7623 10.4271C11.7762 10.9312 10.9278 11.6615 10.2889 12.5562C10.2455 12.6171 10.2148 12.6859 10.1984 12.7585C10.182 12.8311 10.1803 12.9062 10.1934 12.9795C10.2065 13.0527 10.2342 13.1227 10.2748 13.1855C10.3154 13.2482 10.3681 13.3025 10.43 13.3452C10.492 13.3879 10.5618 13.4181 10.6356 13.4343C10.7094 13.4504 10.7857 13.452 10.8601 13.4391C10.9346 13.4262 11.0057 13.399 11.0695 13.3591C11.1332 13.3191 11.1884 13.2672 11.2317 13.2063C12.0595 12.044 13.3016 11.2311 14.7109 10.9293C16.1201 10.6275 17.5931 10.859 18.8368 11.5777L19.3385 11.8669C19.5483 11.988 19.7016 12.1851 19.7656 12.416C19.8296 12.6469 19.7991 12.8933 19.6808 13.1025C19.5625 13.3116 19.3657 13.4668 19.1325 13.5349C18.8993 13.603 18.6483 13.5785 18.4332 13.4667C17.9343 13.2089 17.3855 13.0581 16.823 13.0241C16.2605 12.9902 15.6971 13.0739 15.1698 13.2698C14.6426 13.4657 14.1635 13.7692 13.7641 14.1605C13.3647 14.5518 13.0542 15.022 12.8528 15.54L12.5528 16.3131C12.1373 17.3833 12.1381 18.5669 12.5549 19.6366C12.9718 20.7063 13.7753 21.5868 14.8114 22.1092L19.2802 24.3259C19.4494 24.4108 19.5886 24.5439 19.6797 24.7078C19.7709 24.8717 19.8097 25.0588 19.7911 25.2448C19.7421 25.7619 19.1928 26.1508 18.6764 26.0843L15.9215 25.74C15.8466 25.7307 15.7705 25.7359 15.6977 25.7555C15.6249 25.775 15.5566 25.8085 15.4969 25.854C15.4372 25.8995 15.3872 25.9561 15.3498 26.0207C15.3123 26.0852 15.2881 26.1563 15.2786 26.23C15.2691 26.3038 15.2744 26.3786 15.2943 26.4503C15.3142 26.522 15.3482 26.5891 15.3944 26.6479C15.4406 26.7066 15.4982 26.7558 15.5637 26.7927C15.6293 26.8296 15.7016 26.8534 15.7765 26.8627L18.5299 27.2078C18.8669 27.2468 19.2084 27.2086 19.5279 27.0961C19.8473 26.9836 20.1359 26.7998 20.3711 26.5592C20.6062 26.8 20.8948 26.9839 21.2143 27.0965C21.5338 27.209 21.8754 27.2471 22.2124 27.2078L27.051 26.6038C27.8255 26.5074 28.6123 26.5994 29.3424 26.8715C30.0725 27.1437 30.7237 27.5879 31.239 28.1651L32.8547 29.9771L37.4462 35.4562C37.4936 35.5155 37.5526 35.5649 37.6197 35.6015C37.6867 35.6381 37.7606 35.6611 37.8368 35.6692C37.9131 35.6773 37.9902 35.6704 38.0637 35.6487C38.1371 35.627 38.2055 35.5912 38.2647 35.5431C38.3238 35.4951 38.3727 35.4359 38.4083 35.3691C38.4439 35.3022 38.4655 35.2291 38.472 35.1538C38.4784 35.0786 38.4695 35.0029 38.4458 34.9311C38.4221 34.8594 38.384 34.793 38.3338 34.7359L33.7354 29.244ZM20.3711 23.7355C20.2071 23.5655 20.0152 23.4239 19.8034 23.3165L15.3346 21.0998C14.5516 20.7042 13.9444 20.0381 13.6296 19.2292C13.3147 18.4203 13.3143 17.5255 13.6284 16.7163L13.9268 15.9439C14.0702 15.5758 14.2912 15.2417 14.5752 14.9636C14.8592 14.6855 15.1998 14.4697 15.5746 14.3304C15.9494 14.1912 16.3499 14.1315 16.7497 14.1555C17.1496 14.1794 17.5398 14.2864 17.8947 14.4694C18.2954 14.6768 18.7539 14.7499 19.2007 14.6777C19.6474 14.6055 20.0581 14.3919 20.3704 14.0692C20.6826 14.3919 21.0933 14.6055 21.5401 14.6777C21.9868 14.7499 22.4453 14.6768 22.8461 14.4694C23.201 14.2862 23.5913 14.179 23.9914 14.1549C24.3914 14.1308 24.7921 14.1904 25.1671 14.3297C25.5421 14.469 25.8828 14.6848 26.1669 14.963C26.4511 15.2413 26.6721 15.5756 26.8154 15.9439L27.1154 16.7163C27.4287 17.5244 27.4284 18.4178 27.1145 19.2256C26.8005 20.0335 26.1951 20.6991 25.4138 21.0953L20.9358 23.3165C20.725 23.4239 20.5341 23.5656 20.3711 23.7355ZM39.9073 21.5422L36.0661 16.1455C35.9785 16.0224 35.8448 15.9387 35.6945 15.9126C35.5441 15.8866 35.3894 15.9204 35.2644 16.0066C35.1393 16.0928 35.0542 16.2243 35.0278 16.3723C35.0013 16.5203 35.0356 16.6725 35.1232 16.7955L38.9652 22.1915C39.0074 22.2551 39.0621 22.3097 39.1261 22.3521C39.1902 22.3944 39.2622 22.4237 39.338 22.4381C39.4137 22.4525 39.4916 22.4517 39.5671 22.4359C39.6425 22.4201 39.714 22.3895 39.7772 22.3459C39.8404 22.3024 39.894 22.2467 39.9349 22.1824C39.9758 22.118 40.0032 22.0462 40.0153 21.9712C40.0275 21.8962 40.0242 21.8196 40.0056 21.7459C39.987 21.6722 39.9536 21.603 39.9073 21.5422ZM13.8371 25.4781C12.8759 25.3581 11.8995 25.4721 10.9935 25.8098C10.0875 26.1476 9.27943 26.6989 8.64021 27.4154L7.02224 29.2304L7.01073 29.244L2.40996 34.7306C2.3598 34.7877 2.32174 34.8541 2.29802 34.9259C2.2743 34.9976 2.2654 35.0733 2.27185 35.1486C2.2783 35.2238 2.29996 35.297 2.33556 35.3638C2.37116 35.4307 2.41998 35.4898 2.47915 35.5379C2.53833 35.5859 2.60666 35.6218 2.68013 35.6434C2.7536 35.6651 2.83073 35.672 2.90698 35.6639C2.98323 35.6558 3.05707 35.6328 3.12415 35.5962C3.19122 35.5596 3.25019 35.5102 3.29759 35.4509L7.88915 29.9718L9.50482 28.1598C10.0208 27.5826 10.6728 27.1387 11.4036 26.867C12.1344 26.5953 12.9218 26.5041 13.6967 26.6015C13.7722 26.612 13.8491 26.6077 13.9229 26.5887C13.9968 26.5697 14.066 26.5365 14.1266 26.4909C14.1873 26.4453 14.2381 26.3883 14.2761 26.3233C14.3142 26.2582 14.3387 26.1863 14.3483 26.1118C14.3578 26.0373 14.3522 25.9617 14.3318 25.8894C14.3114 25.817 14.2766 25.7494 14.2294 25.6904C14.1822 25.6315 14.1235 25.5823 14.0568 25.5458C13.9901 25.5094 13.9167 25.4863 13.8409 25.4781H13.8371ZM8.173 7.2093C8.21998 7.30514 8.29352 7.38596 8.38513 7.44247C8.47675 7.49897 8.58273 7.52885 8.69085 7.52867C8.77785 7.52884 8.86371 7.5092 8.94172 7.47129C9.07867 7.40583 9.18364 7.28955 9.23355 7.14799C9.28346 7.00643 9.27425 6.85116 9.20793 6.71628L8.40316 5.08775C8.37011 5.02087 8.32401 4.96106 8.26747 4.91172C8.21094 4.86238 8.14508 4.82448 8.07366 4.80019C8.00225 4.7759 7.92667 4.76568 7.85124 4.77014C7.77581 4.77459 7.70201 4.79362 7.63406 4.82614C7.56611 4.85866 7.50533 4.90404 7.45519 4.95967C7.40506 5.01531 7.36655 5.08012 7.34186 5.1504C7.29201 5.29235 7.3015 5.44797 7.36823 5.58303L8.173 7.2093Z" fill="#0CBD68"/>
</svg>
