<svg width="31" height="27" viewBox="0 0 31 27" fill="none" xmlns="http://www.w3.org/2000/svg">
<path d="M30.0952 12.0827C30.0952 10.6861 28.959 9.54979 27.5623 9.54979H22.8351C23.567 7.67525 23.8632 5.46884 23.8061 3.50476C23.7952 3.12995 23.7808 2.9132 23.7614 2.77674C23.7286 1.40853 22.6052 0.304688 21.23 0.304688C19.8334 0.304688 18.6971 1.44095 18.6971 2.83759V3.47082C18.6971 7.47572 13.5545 9.72589 9.67341 10.6908C9.37997 10.02 8.71014 9.54979 7.93229 9.54979H1.60002C1.25036 9.54979 0.966797 9.83335 0.966797 10.183V25.3805C0.966797 25.7301 1.25036 26.0137 1.60002 26.0137H7.93229C8.70495 26.0137 9.37091 25.5497 9.66739 24.886C9.98875 24.9684 10.2871 25.0463 10.5625 25.1182C12.7734 25.6957 13.9913 26.0137 16.9532 26.0137H23.7629C25.1596 26.0137 26.2959 24.8774 26.2959 23.4808C26.2959 22.96 26.1377 22.4756 25.8672 22.0726C26.8454 21.7305 27.5623 20.7958 27.5623 19.6814C27.5623 19.1625 27.4081 18.6765 27.1383 18.2717C28.1122 17.929 28.8288 16.9965 28.8288 15.8821C28.8288 15.3613 28.6706 14.8769 28.4001 14.4739C29.3783 14.1318 30.0952 13.1971 30.0952 12.0827ZM8.56551 24.114C8.56551 24.4632 8.28145 24.7472 7.93229 24.7472H2.23325V10.8162H7.93229C8.28145 10.8162 8.56551 11.1003 8.56551 11.4495V24.114ZM27.5623 13.3492C26.2041 13.3492 25.8803 13.3492 24.3962 13.3492C24.0465 13.3492 23.7629 13.6327 23.7629 13.9824C23.7629 14.332 24.0465 14.6156 24.3962 14.6156H26.2959C26.9942 14.6156 27.5623 15.1837 27.5623 15.8821C27.5623 16.5815 26.9953 17.1485 26.2959 17.1485H23.1297C22.7801 17.1485 22.4965 17.4321 22.4965 17.7817C22.4965 18.1314 22.7801 18.415 23.1297 18.415H25.0294C25.7194 18.415 26.2959 18.9662 26.2959 19.6814C26.2959 20.3809 25.7289 20.9479 25.0294 20.9479C23.6712 20.9479 23.3474 20.9479 21.8633 20.9479C21.5136 20.9479 21.23 21.2314 21.23 21.5811C21.23 21.9308 21.5136 22.2143 21.8633 22.2143H23.7629C24.4613 22.2143 25.0294 22.7825 25.0294 23.4808C25.0294 24.1791 24.4613 24.7472 23.7629 24.7472H16.9532C14.1539 24.7472 13.0606 24.4617 10.8825 23.8929C10.5634 23.8095 10.2134 23.7182 9.83197 23.6209V11.9576C14.4145 10.8661 19.9636 8.20172 19.9636 3.47082V2.83759C19.9636 2.13927 20.5317 1.57114 21.23 1.57114C21.9271 1.57114 22.4952 2.13838 22.4965 2.83563V2.83759C22.4965 3.11279 22.84 6.49023 21.4627 9.54979H19.3304C18.9807 9.54979 18.6971 9.83335 18.6971 10.183C18.6971 10.5327 18.9807 10.8162 19.3304 10.8162C19.7725 10.8162 26.8406 10.8162 27.5623 10.8162C28.2606 10.8162 28.8288 11.3844 28.8288 12.0827C28.8288 12.7822 28.2618 13.3492 27.5623 13.3492Z" fill="#0CBD68"/>
</svg>
