<svg width="27" height="37" viewBox="0 0 27 37" fill="none" xmlns="http://www.w3.org/2000/svg">
<path d="M15.6657 11.3365C15.7803 10.5322 15.7282 9.71296 15.5126 8.92965C15.2971 8.14634 14.9227 7.41575 14.4127 6.78331C13.9028 6.15087 13.2682 5.6301 12.5484 5.25338C11.8286 4.87666 11.039 4.65205 10.2286 4.59352C9.41833 4.53498 8.60464 4.64378 7.83817 4.91313C7.07169 5.18249 6.36882 5.60664 5.77327 6.15923C5.17771 6.71181 4.70221 7.38101 4.37631 8.1252C4.05042 8.8694 3.88111 9.67269 3.87891 10.4851C3.87891 11.1885 3.91592 11.9659 4.67111 11.9659C4.77843 11.9671 4.88473 11.9449 4.98265 11.901C5.08057 11.8571 5.16776 11.7923 5.23819 11.7114C5.30861 11.6304 5.36059 11.535 5.39051 11.432C5.42044 11.3289 5.42759 11.2205 5.41149 11.1144C5.32172 10.4845 5.36834 9.84259 5.54819 9.23221C5.72804 8.62184 6.03692 8.05722 6.45392 7.57659C6.87093 7.09595 7.38632 6.71051 7.96522 6.44636C8.54412 6.18221 9.17301 6.0455 9.80933 6.0455C10.4456 6.0455 11.0745 6.18221 11.6534 6.44636C12.2323 6.71051 12.7477 7.09595 13.1647 7.57659C13.5817 8.05722 13.8906 8.62184 14.0705 9.23221C14.2503 9.84259 14.2969 10.4845 14.2072 11.1144C14.195 11.2995 14.2527 11.4823 14.3688 11.6269C14.485 11.7714 14.6512 11.8671 14.8345 11.895C15.0178 11.9229 15.2049 11.881 15.3588 11.7776C15.5127 11.6742 15.6223 11.5168 15.6657 11.3365Z" fill="#0CBD68" stroke="#303948" stroke-width="0.311742"/>
<path d="M9.80265 2.33989C11.0455 2.33997 12.2719 2.62452 13.3879 3.17175C14.5038 3.71898 15.4797 4.51437 16.2408 5.49699C17.0019 6.47962 17.528 7.6234 17.7788 8.84073C18.0296 10.0581 17.9984 11.3167 17.6877 12.5201C17.6386 12.7106 17.6672 12.9127 17.7671 13.0821C17.8671 13.2515 18.0303 13.3743 18.2207 13.4233C18.4112 13.4724 18.6134 13.4438 18.7828 13.3439C18.9522 13.2439 19.0749 13.0807 19.124 12.8903C19.4898 11.4683 19.5255 9.98158 19.2283 8.54374C18.9311 7.10591 18.3089 5.75513 17.4093 4.59478C16.5097 3.43443 15.3565 2.49527 14.0381 1.84918C12.7196 1.20309 11.2709 0.867188 9.80265 0.867188C8.33442 0.867188 6.88565 1.20309 5.56722 1.84918C4.24878 2.49527 3.09564 3.43443 2.19603 4.59478C1.29643 5.75513 0.67421 7.10591 0.376999 8.54374C0.0797871 9.98158 0.115461 11.4683 0.481289 12.8903C0.53038 13.0807 0.653123 13.2439 0.822517 13.3439C0.906393 13.3934 0.999197 13.4259 1.09563 13.4395C1.19206 13.4531 1.29024 13.4476 1.38455 13.4233C1.47886 13.399 1.56746 13.3564 1.64529 13.2978C1.72312 13.2393 1.78866 13.166 1.83816 13.0821C1.88766 12.9982 1.92015 12.9054 1.93379 12.809C1.94742 12.7126 1.94193 12.6144 1.91762 12.5201C1.6069 11.3167 1.57574 10.0581 1.82653 8.84073C2.07732 7.6234 2.6034 6.47962 3.36449 5.49699C4.12557 4.51437 5.10147 3.71898 6.21741 3.17175C7.33336 2.62452 8.55975 2.33997 9.80265 2.33989Z" fill="#0CBD68" stroke="#303948" stroke-width="0.311742"/>
<path d="M21.6483 18.3037C21.5916 17.8001 21.4066 17.3193 21.111 16.9076C20.8153 16.4959 20.419 16.1669 19.9598 15.9522C19.5007 15.7375 18.9941 15.6442 18.4886 15.6813C17.9831 15.7184 17.4956 15.8846 17.0727 16.164C16.9281 15.7497 16.6931 15.3727 16.3848 15.0603C16.0766 14.7478 15.7027 14.5078 15.2904 14.3576C14.878 14.2074 14.4374 14.1507 14.0004 14.1917C13.5634 14.2326 13.141 14.3702 12.7637 14.5944V11.3442C12.7886 10.7549 12.637 10.1717 12.3282 9.66914C12.0195 9.16662 11.5678 8.76771 11.0309 8.52354C10.4941 8.27937 9.89654 8.20105 9.31489 8.29863C8.73324 8.3962 8.19397 8.66522 7.76618 9.07122C6.53715 10.2336 6.84071 10.7963 6.84071 19.3625C4.84169 17.8817 2.39844 18.7702 2.39844 20.8432V26.7663C2.39844 29.3189 3.41249 31.7671 5.21751 33.5721C7.02253 35.3771 9.47067 36.3912 12.0234 36.3912H16.4656C19.0183 36.3912 21.4664 35.3771 23.2715 33.5721C25.0765 31.7671 26.0905 29.3189 26.0905 26.7663V20.9691C26.1087 20.4408 25.9851 19.9172 25.7325 19.4528C25.48 18.9883 25.1078 18.6 24.6544 18.328C24.2011 18.056 23.6833 17.9103 23.1547 17.9061C22.626 17.9018 22.1059 18.0391 21.6483 18.3037ZM24.6098 26.7663C24.6098 27.8358 24.3991 28.8948 23.9898 29.8829C23.5806 30.871 22.9807 31.7688 22.2244 32.5251C21.4682 33.2813 20.5703 33.8812 19.5823 34.2905C18.5942 34.6998 17.5351 34.9104 16.4656 34.9104H12.0234C9.86339 34.9104 7.79189 34.0524 6.26456 32.5251C4.73724 30.9977 3.87919 28.9262 3.87919 26.7663V20.8432C3.87919 19.8067 5.35995 19.9326 6.16696 20.7248C6.97397 21.517 6.84071 22.2203 6.84071 26.7663C6.84071 26.9626 6.91871 27.1509 7.05756 27.2898C7.1964 27.4286 7.38472 27.5066 7.58108 27.5066C7.77744 27.5066 7.96576 27.4286 8.10461 27.2898C8.24346 27.1509 8.32146 26.9626 8.32146 26.7663V11.2183C8.32116 11.0168 8.36198 10.8174 8.44144 10.6322C8.52089 10.447 8.63731 10.28 8.78355 10.1414C8.9298 10.0028 9.1028 9.89545 9.29196 9.82601C9.48112 9.75657 9.68246 9.72648 9.88366 9.73756C10.2756 9.78187 10.6366 9.97143 10.8957 10.2688C11.1547 10.5662 11.2929 10.9499 11.283 11.3442V22.324C11.283 22.5203 11.361 22.7087 11.4998 22.8475C11.6387 22.9864 11.827 23.0644 12.0234 23.0644C12.2197 23.0644 12.408 22.9864 12.5469 22.8475C12.6857 22.7087 12.7637 22.5203 12.7637 22.324V17.1413C12.7637 16.7486 12.9197 16.372 13.1974 16.0943C13.4751 15.8166 13.8518 15.6606 14.2445 15.6606C14.6372 15.6606 15.0138 15.8166 15.2915 16.0943C15.5692 16.372 15.7252 16.7486 15.7252 17.1413V22.324C15.7252 22.5203 15.8032 22.7087 15.9421 22.8475C16.0809 22.9864 16.2693 23.0644 16.4656 23.0644C16.662 23.0644 16.8503 22.9864 16.9891 22.8475C17.128 22.7087 17.206 22.5203 17.206 22.324V18.6221C17.206 18.2294 17.362 17.8527 17.6397 17.575C17.9174 17.2973 18.294 17.1413 18.6868 17.1413C19.0795 17.1413 19.4561 17.2973 19.7338 17.575C20.0115 17.8527 20.1675 18.2294 20.1675 18.6221V22.324C20.1675 22.5203 20.2455 22.7087 20.3844 22.8475C20.5232 22.9864 20.7115 23.0644 20.9079 23.0644C21.1042 23.0644 21.2926 22.9864 21.4314 22.8475C21.5703 22.7087 21.6483 22.5203 21.6483 22.324C21.6483 20.7174 21.552 20.2954 22.1073 19.7697C22.3247 19.5601 22.6009 19.422 22.899 19.3739C23.1971 19.3257 23.5028 19.3699 23.775 19.5004C24.0473 19.6309 24.2732 19.8415 24.4224 20.104C24.5716 20.3665 24.637 20.6684 24.6098 20.9691V26.7663Z" fill="#0CBD68" stroke="#303948" stroke-width="0.311742"/>
</svg>
