<?xml version="1.0" encoding="utf-8"?><svg viewBox="0 0 1695 897" xmlns="http://www.w3.org/2000/svg" xmlns:xlink="http://www.w3.org/1999/xlink"><style>:root>svg{display:none}:root>svg:target{display:block}</style><svg viewBox="0 0 1695 897" id="bg-lines" xmlns="http://www.w3.org/2000/svg"><path d="M-923.121 176.97l2824.581 843.35-64.13 121.87-2760.451-965.22zm.001.003L1809.72 1194.67l-64.14 121.87-2668.7-1139.567z"/><path d="M-923.119 176.968L1720.64 1363.94l-61.9 117.64L-923.119 176.968z"/></svg><svg viewBox="0 0 33 34" id="go" xmlns="http://www.w3.org/2000/svg"><g clip-path="url(#ba)"><path d="M27.102 18.993l4.491-5.346c.38-.453.567-1.05.52-1.652a2.226 2.226 0 00-.773-1.534c-.897-.73-2.176-.586-2.909.326l-3.396 4.042-5.044-4.761a.998.998 0 00-1.466.09L2.343 29.416a2.35 2.35 0 00.03 3.1 2 2 0 001.46.638h.069a2.041 2.041 0 001.485-.737l14.167-16.861 3.88 3.662c1.072 1.01 2.712.908 3.667-.225zm-2.977-.598l-3.88-3.662a1.013 1.013 0 00-.75-.276 1.01 1.01 0 00-.716.368L4.613 31.683c-.19.227-.458.36-.743.37a1.05 1.05 0 01-.766-.32 1.218 1.218 0 01.016-1.584L19.3 10.891l5.043 4.76a.998.998 0 001.467-.089l3.397-4.043a1.056 1.056 0 011.483-.198c.223.188.363.466.387.767.024.302-.07.6-.26.826l-4.49 5.346a1.5 1.5 0 01-2.202.135zM11.406 7.86l3.492 3.296a.999.999 0 001.466-.09l1.383-1.645a1.149 1.149 0 00-.085-1.556l-4.656-4.394c-1.071-1.012-2.713-.91-3.667.225L4.847 9.042a2.3 2.3 0 00-.52 1.652c.048.603.329 1.158.777 1.533.36.305.806.47 1.266.468a2.154 2.154 0 001.641-.793l3.395-4.043zm-5.655 3.508a1.121 1.121 0 01-.387-.768c-.024-.301.07-.6.259-.826l4.492-5.346c.274-.328.66-.526 1.073-.55.032 0 .062-.004.093-.004.382 0 .75.149 1.034.42l4.656 4.393-1.382 1.645-3.491-3.297a.999.999 0 00-1.467.09L7.233 11.17a1.058 1.058 0 01-1.482.198z"/><path d="M17.015 32.52c.387.41.913.64 1.46.639h.068a2.042 2.042 0 001.487-.736l4.492-5.346c.954-1.136.859-2.877-.213-3.888l-4.656-4.396a1.007 1.007 0 00-.75-.276 1.01 1.01 0 00-.717.368l-1.382 1.645a1.148 1.148 0 00.085 1.555l3.491 3.294-3.397 4.043a2.351 2.351 0 00.032 3.099zm.746-2.367l3.399-4.042a1.148 1.148 0 00-.085-1.554L17.58 21.26l1.382-1.644 4.655 4.395c.643.607.7 1.651.128 2.332l-4.492 5.346c-.19.227-.458.36-.743.368a.976.976 0 01-.765-.32 1.218 1.218 0 01.015-1.584v-.001zm2.937-21.385a4.495 4.495 0 003.38 1.246c2.226-.137 4.052-1.922 4.36-4.264.307-2.342-.988-4.588-3.095-5.365-2.107-.777-4.438.132-5.568 2.17-1.13 2.04-.743 4.64.923 6.213zm.393-6.265c1.336-1.59 3.635-1.73 5.135-.315 1.5 1.416 1.633 3.853.297 5.443-1.336 1.59-3.635 1.73-5.134.314a3.94 3.94 0 01-1.215-2.655 3.991 3.991 0 01.917-2.787zM.95 14.98c0 .304.232.551.519.551h4.156c.287 0 .52-.247.52-.55 0-.305-.233-.551-.52-.551H1.469c-.287 0-.52.246-.52.55zm2.077 2.203c0 .305.233.551.52.551h4.156c.287 0 .52-.246.52-.55 0-.305-.233-.551-.52-.551H3.547c-.287 0-.52.246-.52.55z"/></g><defs><clipPath id="ba"><path transform="translate(.945 .11)" d="M0 0h31.174v33.045H0z"/></clipPath></defs></svg><svg viewBox="0 0 13 12" id="heart" xmlns="http://www.w3.org/2000/svg"><path d="M9.03.813c-1.254 0-2.304.629-2.813 1.54-.51-.911-1.559-1.54-2.813-1.54C1.662.813.217 2.1.217 3.6c0 2.53 6 7.706 6 7.706s6-5.176 6-7.706c0-1.5-1.445-2.788-3.188-2.788z"/></svg><svg viewBox="0 0 26 35" id="isk" xmlns="http://www.w3.org/2000/svg"><path d="M24.5.703H9.157c-1.658 0-3.043 1.168-3.347 2.71C2.86 3.708.633 6.089.633 9.075v5.023c0 1.69 1.282 3.093 2.941 3.318.597 2.72 2.4 5.007 4.831 6.289-2.865.507-5.045 2.974-5.045 5.932v4.688c0 .37.306.67.682.67h17.73c.377 0 .683-.3.683-.67v-4.688c0-2.958-2.18-5.425-5.045-5.932 3-1.583 5.045-4.695 5.045-8.267V7.897c1.66-1.29 2.727-3.284 2.727-5.52V1.374c0-.37-.305-.67-.681-.67zM11.544 24.72c.887.127 1.84.127 2.727 0v.765c-.068 1.775-2.66 1.774-2.727 0v-.765zm9.547 4.918v4.018h-2.046v-1.674c-.034-.888-1.33-.887-1.364 0v1.674H8.134v-1.674c-.033-.888-1.33-.887-1.364 0v1.674H4.724v-4.018c0-2.585 2.142-4.689 4.774-4.689h.682v.536c.138 3.55 5.319 3.547 5.455 0v-.536h.682c2.632 0 4.774 2.104 4.774 4.689zm0-14.2c-.413 10.651-15.958 10.643-16.367 0v-3.415c1.334-.267 2.388-1.302 2.66-2.612h10.638a7.227 7.227 0 003.069-.68v6.708zm2.728-13.06c0 3.14-2.6 5.693-5.797 5.693H6.77c-.376 0-.682.3-.682.67 0 1.108-.917 2.01-2.046 2.01-.376 0-.681.3-.681.67v4.018c0 .188.005.375.016.56a2.016 2.016 0 01-1.38-1.9V9.075c0-2.441 1.947-4.353 4.432-4.353.377 0 .682-.3.682-.67 0-1.108.918-2.01 2.046-2.01h14.662v.336z"/><path d="M10.075 15.476a.69.69 0 00.964 0 .661.661 0 000-.947c-.882-.903-2.469-.903-3.351 0a.661.661 0 000 .947.69.69 0 00.964 0c.375-.383 1.048-.383 1.423 0zm4.701-.947a.661.661 0 000 .947.69.69 0 00.964 0c.375-.383 1.048-.383 1.423 0a.69.69 0 00.964 0 .661.661 0 000-.947c-.882-.903-2.469-.903-3.351 0zm1.542 2.588h-6.82c-.376 0-.682.3-.682.67.206 5.324 7.979 5.322 8.184 0 0-.37-.306-.67-.682-.67zm-3.41 3.349a2.724 2.724 0 01-2.641-2.01h5.283a2.724 2.724 0 01-2.642 2.01z"/></svg><svg viewBox="0 0 32 33" id="lamp" xmlns="http://www.w3.org/2000/svg"><g clip-path="url(#ea)"><path d="M17.57 32.117h-3.897c-.909 0-1.948-.78-1.948-2.338v-2.728c0-1.299-.65-2.468-1.689-3.377C7.698 21.856 6.53 19.258 6.53 16.4c.13-4.936 4.157-8.833 8.963-8.962 2.468 0 4.806.909 6.494 2.597 1.69 1.689 2.728 4.027 2.728 6.495 0 2.728-1.169 5.326-3.377 7.014-1.169.91-1.818 2.338-1.818 3.637v2.988c0 1.039-.91 1.948-1.949 1.948zm-1.948-23.38c-4.157 0-7.664 3.506-7.794 7.663 0 2.468 1.04 4.806 2.988 6.235 1.429 1.169 2.208 2.728 2.208 4.416v2.728c0 .26 0 1.04.65 1.04h3.896c.39 0 .65-.26.65-.65V27.18c0-1.688.909-3.507 2.338-4.676 1.818-1.429 2.857-3.637 2.857-5.975 0-2.078-.779-4.027-2.338-5.585-1.429-1.43-3.377-2.209-5.455-2.209z"/><path d="M18.867 28.229h-6.495c-.39 0-.65-.26-.65-.65s.26-.65.65-.65h6.495c.39 0 .65.26.65.65s-.26.65-.65.65zM15.62 4.85c-.39 0-.65-.26-.65-.65V1.603c0-.39.26-.65.65-.65s.65.26.65.65V4.2c0 .39-.26.65-.65.65zm8.704 3.632c-.13 0-.39 0-.52-.13a.628.628 0 010-.909l1.819-1.818c.26-.26.65-.26.909 0 .26.26.26.649 0 .909l-1.819 1.818s-.26.13-.39.13zm6.234 8.7H27.96c-.39 0-.65-.26-.65-.65s.26-.65.65-.65h2.598c.39 0 .65.26.65.65s-.26.65-.65.65zm-4.416 10.527c-.13 0-.39 0-.52-.13l-1.818-1.819a.628.628 0 010-.909c.26-.26.65-.26.91 0l1.818 1.819c.26.26.26.649 0 .909 0 .13-.13.13-.39.13zm-21.042 0c-.13 0-.39 0-.52-.13a.628.628 0 010-.91l1.818-1.818c.26-.26.65-.26.91 0s.26.65 0 .91l-1.82 1.818c-.129.13-.259.13-.389.13zM3.28 17.182H.684c-.39 0-.65-.26-.65-.65s.26-.65.65-.65H3.28c.39 0 .649.26.649.65s-.26.65-.65.65zM6.918 8.48c-.13 0-.39 0-.52-.13L4.58 6.4a.628.628 0 010-.91c.26-.26.65-.26.909 0l1.818 1.82c.26.259.26.649 0 .908-.13.13-.26.26-.39.26zm13.898 8.71c-.39 0-.65-.26-.65-.65 0-2.467-2.078-4.546-4.546-4.546-.39 0-.65-.26-.65-.65 0-.389.26-.649.65-.649a5.82 5.82 0 015.845 5.846c0 .39-.26.649-.65.649z"/></g><defs><clipPath id="ea"><path transform="translate(.033 .945)" d="M0 0h31.174v31.174H0z"/></clipPath></defs></svg><svg viewBox="0 0 27 33" id="lid" xmlns="http://www.w3.org/2000/svg"><path d="M24.645 3.435h-1.863v-.994A1.865 1.865 0 0020.918.578H6.013A1.865 1.865 0 004.15 2.441v.994H2.287A1.865 1.865 0 00.424 5.298c0 4.04 1.89 7.01 4.958 7.836a13.692 13.692 0 004.824 5.704c.486.327.776.888.776 1.5v3.421a2.47 2.47 0 00-1.136.65 2.468 2.468 0 00-.727 1.756h-.622a1.865 1.865 0 00-1.863 1.864v3.726c0 .343.278.62.621.62h12.421a.621.621 0 00.621-.62v-3.726a1.865 1.865 0 00-1.863-1.864h-.62a2.489 2.489 0 00-1.864-2.405v-3.42c0-.613.29-1.175.777-1.502a13.69 13.69 0 004.824-5.704c3.067-.827 4.957-3.796 4.957-7.836a1.865 1.865 0 00-1.863-1.863zM1.665 5.298c0-.342.28-.62.622-.62H4.15v2.775c0 1.416.215 2.802.638 4.137-1.976-.979-3.122-3.24-3.122-6.292zm16.77 22.11a.62.62 0 01.62.62v3.106H7.876v-3.105c0-.343.279-.622.621-.622h9.937zM21.54 7.452c0 1.697-.338 3.347-1.005 4.906a12.454 12.454 0 01-4.502 5.449 3.038 3.038 0 00-1.325 2.532v3.962c0 .343.278.621.621.621.685 0 1.242.557 1.242 1.242h-6.21c0-.331.129-.643.364-.878.223-.223.516-.35.829-.363a.623.623 0 00.67-.622v-3.965a3.036 3.036 0 00-1.325-2.53 12.455 12.455 0 01-4.502-5.448 12.408 12.408 0 01-1.005-4.906V2.441c0-.342.279-.62.621-.62h14.905c.343 0 .622.278.622.62v5.012zm.604 4.137a13.65 13.65 0 00.638-4.137V4.677h1.863c.342 0 .62.279.62.621 0 3.052-1.145 5.313-3.121 6.292z"/></svg><svg viewBox="0 0 40 32" id="lol" xmlns="http://www.w3.org/2000/svg"><path d="M39.248 15.835C39.248 8.5 32.609 2.21 23.463.88a.756.756 0 00-.86.627.746.746 0 00.638.845c8.398 1.223 14.494 6.893 14.494 13.484 0 2.129-.619 4.17-1.838 6.069a.735.735 0 00-.117.397v5.494l-3.15-1.789a.767.767 0 00-.814.036c-3.274 2.267-7.499 3.515-11.896 3.515-9.823 0-17.815-6.155-17.815-13.722 0-6.6 6.105-12.272 14.518-13.487a.746.746 0 00.638-.845.755.755 0 00-.858-.628C7.24 2.198.592 8.49.592 15.835c0 4.096 2.033 7.937 5.726 10.813 3.64 2.836 8.471 4.398 13.602 4.398 4.53 0 8.9-1.246 12.366-3.517l3.874 2.2a.768.768 0 00.756 0 .743.743 0 00.378-.646l-.001-6.57c1.297-2.087 1.955-4.333 1.955-6.678z"/><path d="M7.108 10.828a.75.75 0 00-.756.744v7.399c0 .363.265.672.628.733.054.01 1.914.005 2.768 0a.741.741 0 00.752-.737.75.75 0 00-.756-.74h-.005c-.657.003-1.365.006-1.874.006v-6.66a.75.75 0 00-.757-.745zm14.98 8.876s1.913.005 2.767 0a.741.741 0 00.753-.737.75.75 0 00-.757-.74h-.004c-.658.003-1.365.006-1.875.006v-6.66a.75.75 0 00-.757-.745.75.75 0 00-.756.744v7.399c0 .362.266.672.629.733zm-11.154-4.195c0 2.452 2.027 4.447 4.52 4.447 2.491 0 4.519-1.995 4.519-4.447s-2.028-4.447-4.52-4.447c-2.492 0-4.52 1.995-4.52 4.447zm7.526 0c0 1.631-1.35 2.958-3.007 2.958-1.658 0-3.006-1.327-3.006-2.958 0-1.631 1.348-2.958 3.006-2.958 1.658 0 3.007 1.327 3.007 2.958zm14.23-5.562a.75.75 0 00-.756-.744H28.82a.75.75 0 00-.757.744v6.335a.75.75 0 00.757.744h3.113a.75.75 0 00.756-.744V9.947zm-1.512 5.59h-1.6v-4.845h1.6v4.845zm-.801 2.471c-1.252 0-2.27 1.001-2.27 2.233 0 1.23 1.018 2.233 2.27 2.233 1.251 0 2.27-1.002 2.27-2.233 0-1.232-1.019-2.233-2.27-2.233zm0 2.977a.751.751 0 01-.757-.744c0-.41.34-.745.757-.745s.756.334.756.745c0 .41-.34.744-.756.744zM19.864 2.104a.753.753 0 00.807-.69.748.748 0 00-.702-.795.753.753 0 00-.807.69c-.03.41.285.766.702.795z"/></svg><svg viewBox="0 0 41 36" id="love" xmlns="http://www.w3.org/2000/svg"><path d="M14.398 5.283a.566.566 0 00.329.297.584.584 0 00.627-.16.564.564 0 00.079-.632l-1.45-2.938a.584.584 0 00-.77-.262.558.558 0 00-.266.757l1.45 2.938zm5.973-.814a.58.58 0 00.407-.165.562.562 0 00.169-.4V.963a.56.56 0 00-.169-.4.58.58 0 00-.814 0 .562.562 0 00-.168.4v2.94c0 .15.06.293.168.4a.58.58 0 00.407.165zm5.205 1.076a.58.58 0 00.767-.262l1.45-2.938a.558.558 0 00-.087-.624.576.576 0 00-.619-.159.577.577 0 00-.33.288l-1.45 2.938a.559.559 0 00.269.757zm6.226 1.926a.58.58 0 00.769-.262l.803-1.626a.558.558 0 00-.087-.623.575.575 0 00-.618-.16.577.577 0 00-.33.288l-.803 1.627a.558.558 0 00.266.756zm1.933 21.773l-.011-.014-1.621-1.812a5.926 5.926 0 00-2.354-1.605 6.012 6.012 0 00-2.844-.332l-4.838.604c-.52.067-1.065-.32-1.115-.84a.917.917 0 01.11-.535.937.937 0 01.396-.382l4.478-2.22a4.674 4.674 0 002.253-2.473 4.579 4.579 0 00.001-3.321l-.3-.774a3.92 3.92 0 00-.912-1.378 3.997 3.997 0 00-1.404-.89 4.05 4.05 0 00-3.262.195.944.944 0 01-1.205-.298.9.9 0 01-.137-.714c.102-.445.564-.661.939-.877a5.818 5.818 0 014.125-.647 5.744 5.744 0 013.478 2.277.583.583 0 00.802.139.56.56 0 00.141-.789 6.936 6.936 0 00-8.319-2.356.902.902 0 01.057-.562.92.92 0 01.381-.423c1.86-1.066 4.143-1.402 6.047-.433a5.735 5.735 0 012.06 1.773l3.199 4.495a.57.57 0 00.371.232.584.584 0 00.585-.253.562.562 0 00-.014-.629l-3.2-4.494a6.873 6.873 0 00-2.472-2.13c-2.325-1.185-4.92-.83-7.157.462a2.053 2.053 0 00-.91 1.085c-.163.456-.157.954.017 1.406a3.049 3.049 0 00-.729.514 2.914 2.914 0 00-.729-.514c.175-.452.18-.95.017-1.406a2.054 2.054 0 00-.91-1.085l-.502-.292a6.982 6.982 0 00-4.954-.777 6.894 6.894 0 00-4.176 2.735L.836 21.542a.559.559 0 00.152.773.583.583 0 00.79-.123l8.285-11.636a5.747 5.747 0 013.479-2.277 5.82 5.82 0 014.125.646c.435.251 1.08.663.94 1.276a6.947 6.947 0 00-8.318 2.355.562.562 0 00.347.878.585.585 0 00.596-.228 5.744 5.744 0 013.479-2.277 5.818 5.818 0 014.126.649l.502.289c.21.121.363.318.427.549a.903.903 0 01-.085.686.928.928 0 01-.549.433.944.944 0 01-.699-.068 4.039 4.039 0 00-4.669.694c-.4.39-.71.861-.911 1.379l-.3.773a4.58 4.58 0 00.002 3.324 4.675 4.675 0 002.256 2.472l4.47 2.217a.92.92 0 01.51.919c-.049.517-.598.906-1.115.84l-2.754-.345a.584.584 0 00-.572.28.558.558 0 00.214.773.58.58 0 00.213.07l2.753.345c.337.039.678 0 .998-.112.32-.112.608-.296.843-.537a2.2 2.2 0 00.843.537c.32.113.661.151.998.112l4.839-.604a4.85 4.85 0 012.291.268 4.78 4.78 0 011.897 1.293l1.616 1.812 4.591 5.48a.574.574 0 00.39.212.584.584 0 00.572-.3.56.56 0 00-.074-.633l-4.599-5.492zm-13.364-5.509a2.122 2.122 0 00-.568-.418L15.335 21.1a3.537 3.537 0 01-1.705-1.87 3.464 3.464 0 01-.002-2.514l.299-.772a2.79 2.79 0 01.648-.98 2.844 2.844 0 011-.634 2.88 2.88 0 012.32.14 2.11 2.11 0 002.475-.4 2.11 2.11 0 002.476.4 2.874 2.874 0 013.32.493c.285.278.506.613.65.98l.3.773a3.464 3.464 0 01-.002 2.51 3.536 3.536 0 01-1.7 1.87l-4.478 2.22a2.11 2.11 0 00-.565.42zm19.536-2.193l-3.84-5.397a.583.583 0 00-.802-.139.565.565 0 00-.142.79l3.842 5.396a.572.572 0 00.373.246.585.585 0 00.597-.256.56.56 0 00-.028-.64zm-26.07 3.936a6.013 6.013 0 00-2.844.332 5.928 5.928 0 00-2.353 1.605L7.022 29.23l-.011.014-4.601 5.487a.564.564 0 00-.074.633.569.569 0 00.344.28.583.583 0 00.618-.193l4.591-5.48 1.616-1.811a4.78 4.78 0 011.899-1.293 4.848 4.848 0 012.293-.265.585.585 0 00.58-.279.56.56 0 00-.22-.777.581.581 0 00-.216-.068h-.004zM8.173 7.21a.568.568 0 00.518.32c.087 0 .173-.02.25-.058a.569.569 0 00.293-.323.557.557 0 00-.026-.432l-.805-1.628a.567.567 0 00-.33-.288.584.584 0 00-.618.16.565.565 0 00-.087.623l.805 1.626z"/></svg><svg viewBox="0 0 31 27" id="ok" xmlns="http://www.w3.org/2000/svg"><path d="M30.095 12.083a2.536 2.536 0 00-2.533-2.533h-4.727c.732-1.875 1.028-4.081.971-6.045a7.227 7.227 0 00-.045-.728A2.536 2.536 0 0021.23.305a2.536 2.536 0 00-2.533 2.533v.633c0 4.005-5.142 6.255-9.024 7.22a1.902 1.902 0 00-1.74-1.141H1.6a.633.633 0 00-.633.633v15.198c0 .35.283.633.633.633h6.332a1.9 1.9 0 001.735-1.128c.322.082.62.16.896.232 2.21.578 3.428.896 6.39.896h6.81a2.536 2.536 0 002.533-2.533c0-.521-.158-1.005-.429-1.408a2.534 2.534 0 001.695-2.392c0-.518-.154-1.005-.424-1.41a2.534 2.534 0 001.262-3.797 2.534 2.534 0 001.695-2.391zM8.565 24.114c0 .35-.284.633-.633.633H2.233v-13.93h5.7c.348 0 .633.283.633.633v12.664zm18.997-10.765h-3.166a.633.633 0 100 1.267h1.9a1.266 1.266 0 010 2.533H23.13a.633.633 0 000 1.266h1.9a1.266 1.266 0 010 2.533h-3.167a.633.633 0 100 1.266h1.9a1.268 1.268 0 010 2.533h-6.81c-2.8 0-3.892-.285-6.07-.854-.32-.084-.67-.175-1.051-.272V11.958c4.582-1.092 10.132-3.756 10.132-8.487v-.633a1.268 1.268 0 012.533-.002v.002c0 .275.343 3.652-1.034 6.712H19.33a.633.633 0 000 1.266h8.232a1.266 1.266 0 110 2.533z"/></svg><svg viewBox="0 0 27 37" id="pulse" xmlns="http://www.w3.org/2000/svg"><path d="M15.666 11.336a5.922 5.922 0 10-11.787-.85c0 .702.037 1.48.792 1.48a.741.741 0 00.74-.852 4.442 4.442 0 118.796 0 .74.74 0 001.459.222z"/><path d="M9.803 2.34a8.145 8.145 0 017.885 10.18.742.742 0 001.436.37 9.626 9.626 0 10-18.643 0 .742.742 0 001.437-.37A8.144 8.144 0 019.803 2.34z"/><path d="M21.648 18.304a2.962 2.962 0 00-4.575-2.14 2.96 2.96 0 00-4.31-1.57v-3.25a2.96 2.96 0 00-4.997-2.273c-1.229 1.163-.925 1.725-.925 10.292-2-1.481-4.443-.593-4.443 1.48v5.923a9.625 9.625 0 009.625 9.625h4.443a9.625 9.625 0 009.624-9.625V20.97a2.96 2.96 0 00-4.442-2.665zm2.962 8.462a8.144 8.144 0 01-8.144 8.144h-4.443a8.144 8.144 0 01-8.144-8.144v-5.923c0-1.036 1.481-.91 2.288-.118.807.792.674 1.495.674 6.041a.74.74 0 001.48 0V11.218a1.48 1.48 0 011.563-1.48 1.577 1.577 0 011.399 1.606v10.98a.74.74 0 001.48 0v-5.183a1.48 1.48 0 012.962 0v5.183a.74.74 0 101.481 0v-3.702a1.48 1.48 0 012.962 0v3.702a.74.74 0 101.48 0c0-1.607-.096-2.029.46-2.554a1.48 1.48 0 012.502 1.2v5.796z"/></svg><svg viewBox="0 0 19 13" id="quote" xmlns="http://www.w3.org/2000/svg"><path d="M3.49.531L.033 12.877h6.05L8.28.53H3.49zm9.753 0L9.762 12.877h6.049L18.033.53h-4.79z"/></svg></svg>