<svg width="27" height="33" viewBox="0 0 27 33" fill="none" xmlns="http://www.w3.org/2000/svg">
<path d="M24.6447 3.43495H22.7816V2.44127C22.7816 1.41393 21.9458 0.578125 20.9184 0.578125H6.01327C4.98593 0.578125 4.15012 1.41393 4.15012 2.44127V3.43495H2.28698C1.25964 3.43495 0.423828 4.27076 0.423828 5.2981C0.423828 9.33846 2.31443 12.3077 5.38154 13.1344C6.43297 15.4487 8.0954 17.4161 10.2055 18.8378C10.6915 19.1653 10.9817 19.7259 10.9817 20.3374V23.7593C10.5559 23.8685 10.1654 24.0899 9.84632 24.409C9.37699 24.8783 9.11851 25.5021 9.11851 26.1653H8.49746C7.47013 26.1653 6.63432 27.0012 6.63432 28.0285V31.7548C6.63432 32.0978 6.91242 32.3758 7.25537 32.3758H19.6763C20.0193 32.3758 20.2974 32.0978 20.2974 31.7548V28.0285C20.2974 27.0012 19.4616 26.1653 18.4342 26.1653H17.8132C17.8132 25.0099 17.0203 24.0362 15.9501 23.7598V20.3405C15.9501 19.727 16.2404 19.1653 16.7269 18.8378C18.8371 17.4161 20.4995 15.4486 21.5509 13.1342C24.6176 12.3072 26.5079 9.33815 26.5079 5.2981C26.5079 4.27076 25.6721 3.43495 24.6447 3.43495ZM1.66593 5.2981C1.66593 4.95565 1.94453 4.67705 2.28698 4.67705H4.15012V7.45314C4.15012 8.86882 4.36457 10.2551 4.78794 11.5902C2.81157 10.6112 1.66593 8.3503 1.66593 5.2981ZM18.4342 27.4074C18.7767 27.4074 19.0553 27.686 19.0553 28.0285V31.1337H7.87642V28.0285C7.87642 27.686 8.15502 27.4074 8.49746 27.4074H18.4342ZM21.5395 7.45314C21.5395 9.14959 21.2018 10.8003 20.5355 12.3594C19.5878 14.5776 18.0308 16.4616 16.033 17.8076C15.2033 18.3661 14.708 19.313 14.708 20.3405V24.3022C14.708 24.6452 14.9861 24.9232 15.329 24.9232C16.0139 24.9232 16.5711 25.4804 16.5711 26.1653H10.3606C10.3606 25.8338 10.4899 25.522 10.7246 25.2872C10.9478 25.064 11.2408 24.9362 11.554 24.9242C11.5701 24.9254 11.5863 24.926 11.6026 24.926C11.9456 24.926 12.2237 24.6452 12.2237 24.3022V20.3374C12.2237 19.3121 11.7287 18.3664 10.8995 17.8077C8.90152 16.4616 7.34455 14.5777 6.3967 12.3593C5.73019 10.8008 5.39222 9.15009 5.39222 7.45314V2.44127C5.39222 2.09883 5.67082 1.82022 6.01327 1.82022H20.9184C21.2609 1.82022 21.5395 2.09883 21.5395 2.44127V7.45314ZM22.144 11.5901C22.5672 10.2547 22.7816 8.86845 22.7816 7.45314V4.67705H24.6447C24.9872 4.67705 25.2658 4.95565 25.2658 5.2981C25.2658 8.35012 24.1203 10.611 22.144 11.5901Z" fill="#0CBD68"/>
</svg>
